<svg xmlns="http://www.w3.org/2000/svg" version="1.1" xmlns:xlink="http://www.w3.org/1999/xlink" xmlns:svgjs="http://svgjs.dev/svgjs" width="128" height="128" viewBox="0 0 128 128"><g transform="matrix(0.8046875,0,0,0.8046875,12.760752631578946,31.066428354395626)"><svg viewBox="0 0 95 61" data-background-color="#ffffff" preserveAspectRatio="xMidYMid meet" height="82" width="128" xmlns="http://www.w3.org/2000/svg" xmlns:xlink="http://www.w3.org/1999/xlink"><g id="tight-bounds" transform="matrix(1,0,0,1,-0.24049999999999727,-0.05418808798496855)"><svg viewBox="0 0 95.481 61.10837617596994" height="61.10837617596994" width="95.481"><g><svg viewBox="0 0 95.481 61.10837617596994" height="61.10837617596994" width="95.481"><g><svg viewBox="0 0 95.481 61.10837617596994" height="61.10837617596994" width="95.481"><g id="textblocktransform"><svg viewBox="0 0 95.481 61.10837617596994" height="61.10837617596994" width="95.481" id="textblock"><g><svg viewBox="0 0 95.481 61.10837617596994" height="61.10837617596994" width="95.481"><g><svg viewBox="0 0 95.481 61.10837617596994" height="61.10837617596994" width="95.481"><g><svg version="1.1" xmlns="http://www.w3.org/2000/svg" xmlns:xlink="http://www.w3.org/1999/xlink" x="0" y="0" viewBox="0.00043870906370518936 0 99.99912258187258 64" enable-background="new 0 0 100 64" xml:space="preserve" height="61.10837617596994" width="95.481" class="icon-icon-0" data-fill-palette-color="accent" id="icon-0"><path d="M84.604 10l-13-10v6h-43C19.343 6 11.05 9.603 5.852 15.885c-3.605 4.357-7.431 12.034-5.178 23.863l0.005-0.001C1.029 41.599 2.65 43 4.604 43c2.209 0 4-1.791 4-4 0-0.256-0.029-0.505-0.075-0.747l0.005-0.001c-1.323-6.945-0.119-12.916 3.481-17.267C15.688 16.546 21.734 14 28.604 14h43v6L84.604 10z" fill="#ffffff" data-fill-palette-color="accent"></path><path d="M15.396 54l13 10v-6h43c9.261 0 17.554-3.603 22.752-9.885 3.605-4.357 7.431-12.034 5.178-23.863l-0.005 0.001C98.971 22.401 97.35 21 95.396 21c-2.209 0-4 1.791-4 4 0 0.256 0.029 0.505 0.075 0.747l-0.005 0.001c1.323 6.945 0.119 12.916-3.481 17.267C84.312 47.454 78.266 50 71.396 50h-43v-6L15.396 54z" fill="#ffffff" data-fill-palette-color="accent"></path></svg></g></svg></g></svg></g></svg></g></svg></g></svg></g><defs></defs></svg><rect width="95.481" height="61.10837617596994" fill="none" stroke="none" visibility="hidden"></rect></g></svg></g></svg>